<svg width="31" height="31" viewBox="0 0 31 31" fill="none" xmlns="http://www.w3.org/2000/svg">
<circle cx="15.4667" cy="15.4667" r="15.4667" fill="#1DA1F2"/>
<path fill-rule="evenodd" clip-rule="evenodd" d="M23.7406 10.142C23.1322 10.4123 22.4774 10.5944 21.7906 10.6766C22.4917 10.2562 23.0301 9.59095 23.2833 8.79825C22.628 9.18771 21.9004 9.4696 21.1275 9.6224C20.508 8.96264 19.6249 8.55002 18.649 8.55002C16.774 8.55002 15.2537 10.0703 15.2537 11.9453C15.2537 12.2112 15.2841 12.4705 15.342 12.7193C12.5198 12.5781 10.0181 11.226 8.34338 9.17171C8.05101 9.67315 7.88387 10.2562 7.88387 10.8785C7.88387 12.0562 8.48239 13.0955 9.39424 13.7045C8.83709 13.6869 8.31414 13.534 7.85573 13.2797V13.3222C7.85573 14.9677 9.02685 16.3397 10.5792 16.6524C10.2945 16.7297 9.99442 16.7716 9.68496 16.7716C9.46596 16.7716 9.25303 16.7501 9.04561 16.7104C9.47754 18.0591 10.732 19.041 12.2175 19.0686C11.0558 19.9788 9.59173 20.5222 8.00081 20.5222C7.7261 20.5222 7.4558 20.5062 7.19046 20.4742C8.69312 21.4373 10.4777 22 12.3951 22C18.6402 22 22.0554 16.8262 22.0554 12.3398C22.0554 12.1925 22.0526 12.0457 22.0455 11.9007C22.7096 11.4207 23.2855 10.8228 23.7406 10.142Z" fill="white"/>
</svg>
